<svg width="20" height="20" viewBox="0 0 20 20" fill="none" xmlns="http://www.w3.org/2000/svg">
<path d="M11.0833 14.3959C10.9166 14.2292 10.8366 14.0279 10.8433 13.7917C10.8505 13.5556 10.9374 13.3542 11.1041 13.1876L13.4583 10.8334H4.16659C3.93047 10.8334 3.73242 10.7534 3.57242 10.5934C3.41297 10.434 3.33325 10.2362 3.33325 10.0001C3.33325 9.76397 3.41297 9.56591 3.57242 9.40591C3.73242 9.24647 3.93047 9.16675 4.16659 9.16675H13.4583L11.0833 6.79175C10.9166 6.62508 10.8333 6.42703 10.8333 6.19758C10.8333 5.96869 10.9166 5.77091 11.0833 5.60425C11.2499 5.43758 11.448 5.35425 11.6774 5.35425C11.9063 5.35425 12.1041 5.43758 12.2708 5.60425L16.0833 9.41675C16.1666 9.50008 16.2258 9.59036 16.2608 9.68758C16.2952 9.7848 16.3124 9.88897 16.3124 10.0001C16.3124 10.1112 16.2952 10.2154 16.2608 10.3126C16.2258 10.4098 16.1666 10.5001 16.0833 10.5834L12.2499 14.4167C12.0971 14.5695 11.9063 14.6459 11.6774 14.6459C11.448 14.6459 11.2499 14.5626 11.0833 14.3959Z" fill="#F4F4F4"/>
</svg>
