<svg width="102" height="25" viewBox="0 0 102 25" fill="none" xmlns="http://www.w3.org/2000/svg">
<path d="M9.73572 12.7793H7.25959V24.1508H1.71641V12.7793H0V8.1222H1.71641V7.97934C1.71641 5.9222 2.30731 4.35077 3.4891 3.26505C4.68966 2.16029 6.40607 1.60791 8.63834 1.60791C9.08855 1.60791 9.43559 1.61743 9.67945 1.63648V6.40791C9.52938 6.38886 9.32304 6.37934 9.06041 6.37934C8.46014 6.37934 8.01931 6.5222 7.73793 6.80791C7.45655 7.07458 7.2971 7.51267 7.25959 8.1222H9.73572V12.7793ZM17.2217 10.9508C17.8407 10.0365 18.5911 9.31267 19.4727 8.77934C20.3544 8.24601 21.3017 7.97934 22.3147 7.97934V13.9508H20.7671C19.5665 13.9508 18.6755 14.1889 18.094 14.6651C17.5125 15.1412 17.2217 15.9698 17.2217 17.1508V24.1508H11.7067V8.1222H17.2217V10.9508ZM23.3914 16.1222C23.3914 14.4651 23.6822 13.0174 24.2637 11.7793C24.864 10.5412 25.6706 9.58886 26.6836 8.9222C27.7153 8.25553 28.8596 7.9222 30.1164 7.9222C31.2044 7.9222 32.1423 8.14124 32.9302 8.57934C33.718 9.01743 34.3277 9.60791 34.7591 10.3508V8.1222H40.2742V24.1508H34.7591V21.9222C34.3277 22.6651 33.7087 23.2555 32.902 23.6936C32.1142 24.1317 31.1856 24.3508 30.1164 24.3508C28.8596 24.3508 27.7153 24.0174 26.6836 23.3508C25.6706 22.6841 24.864 21.7317 24.2637 20.4936C23.6822 19.2365 23.3914 17.7793 23.3914 16.1222ZM34.7591 16.1222C34.7591 15.0936 34.4778 14.2841 33.915 13.6936C33.371 13.1031 32.6957 12.8079 31.8891 12.8079C31.0637 12.8079 30.379 13.1031 29.835 13.6936C29.291 14.2651 29.019 15.0746 29.019 16.1222C29.019 17.1508 29.291 17.9698 29.835 18.5793C30.379 19.1698 31.0637 19.4651 31.8891 19.4651C32.6957 19.4651 33.371 19.1698 33.915 18.5793C34.4778 17.9889 34.7591 17.1698 34.7591 16.1222ZM42.5164 16.1222C42.5164 14.4651 42.8541 13.0174 43.5294 11.7793C44.2047 10.5412 45.1426 9.58886 46.3432 8.9222C47.5625 8.25553 48.9506 7.9222 50.5076 7.9222C52.5148 7.9222 54.203 8.4841 55.5724 9.60791C56.9418 10.7127 57.8234 12.2651 58.2174 14.2651H52.3647C52.027 13.2174 51.3705 12.6936 50.395 12.6936C49.701 12.6936 49.1476 12.9889 48.7349 13.5793C48.341 14.1508 48.144 14.9984 48.144 16.1222C48.144 17.246 48.341 18.1031 48.7349 18.6936C49.1476 19.2841 49.701 19.5793 50.395 19.5793C51.3892 19.5793 52.0458 19.0555 52.3647 18.0079H58.2174C57.8234 19.9889 56.9418 21.5412 55.5724 22.6651C54.203 23.7889 52.5148 24.3508 50.5076 24.3508C48.9506 24.3508 47.5625 24.0174 46.3432 23.3508C45.1426 22.6841 44.2047 21.7317 43.5294 20.4936C42.8541 19.2555 42.5164 17.7984 42.5164 16.1222ZM95.103 7.97934C96.9226 7.97934 98.367 8.59839 99.4363 9.83648C100.506 11.0555 101.04 12.7127 101.04 14.8079V24.1508H95.5251V15.5508C95.5251 14.6365 95.2906 13.9222 94.8217 13.4079C94.3527 12.8746 93.7243 12.6079 92.9364 12.6079C92.111 12.6079 91.4639 12.8746 90.9949 13.4079C90.5259 13.9222 90.2915 14.6365 90.2915 15.5508V24.1508H84.7764V8.1222H90.2915V10.4079C90.7792 9.6841 91.4357 9.10315 92.2611 8.66505C93.0865 8.20791 94.0338 7.97934 95.103 7.97934Z" fill="#999999"/>
<path d="M75.248 24.1489L70.7507 17.5156L66.9098 24.1489H59.5893L67.1068 12.1156L59.3267 0.648926H66.9098L71.2759 7.11559L75.0182 0.648926H82.3388L74.9198 12.4823L82.8312 24.1489H75.248Z" fill="#37F2AD"/>
</svg>
