<svg width="32" height="32" viewBox="0 0 32 32" fill="none" xmlns="http://www.w3.org/2000/svg">
<path d="M21.3333 11.1998L9.49995 23.0665C9.23328 23.3332 8.9164 23.4665 8.54928 23.4665C8.18217 23.4665 7.86573 23.3332 7.59995 23.0665C7.33328 22.7998 7.19995 22.483 7.19995 22.1158C7.19995 21.7487 7.33328 21.4323 7.59995 21.1665L19.4666 9.33318H9.33328C8.95551 9.33318 8.63862 9.20517 8.38262 8.94917C8.12662 8.69317 7.99906 8.37673 7.99995 7.99984C7.99995 7.62206 8.12795 7.30518 8.38395 7.04918C8.63995 6.79318 8.9564 6.66562 9.33328 6.66651H22.6666C23.0444 6.66651 23.3613 6.79451 23.6173 7.05051C23.8733 7.30651 24.0008 7.62295 24 7.99984V21.3332C24 21.711 23.872 22.0278 23.616 22.2838C23.36 22.5398 23.0435 22.6674 22.6666 22.6665C22.2888 22.6665 21.972 22.5385 21.716 22.2825C21.46 22.0265 21.3324 21.7101 21.3333 21.3332V11.1998Z" fill="#F4F4F4"/>
</svg>
