<svg width="16" height="16" viewBox="0 0 16 16" fill="none" xmlns="http://www.w3.org/2000/svg">
<path d="M3.33333 14.6668C2.96667 14.6668 2.65267 14.5362 2.39133 14.2748C2.13 14.0135 1.99956 13.6997 2 13.3335V4.00016C2 3.6335 2.13067 3.3195 2.392 3.05816C2.65333 2.79683 2.96711 2.66639 3.33333 2.66683H4V1.3335H5.33333V2.66683H10.6667V1.3335H12V2.66683H12.6667C13.0333 2.66683 13.3473 2.7975 13.6087 3.05883C13.87 3.32016 14.0004 3.63394 14 4.00016V13.3335C14 13.7002 13.8693 14.0142 13.608 14.2755C13.3467 14.5368 13.0329 14.6673 12.6667 14.6668H3.33333ZM3.33333 13.3335H12.6667V6.66683H3.33333V13.3335ZM3.33333 5.3335H12.6667V4.00016H3.33333V5.3335Z" fill="#F4F4F4"/>
</svg>
