<svg width="99" height="99" viewBox="0 0 99 99" fill="none" xmlns="http://www.w3.org/2000/svg">
<path d="M69.6372 39.2568L51.0747 28.274C50.5979 27.9915 50.0538 27.8427 49.4996 27.8433C48.9454 27.8438 48.4015 27.9937 47.9253 28.2771L29.3628 39.2599C28.9 39.5328 28.5164 39.9219 28.25 40.3885C27.9836 40.8551 27.8435 41.3832 27.8438 41.9205V63.2674C27.8438 64.3626 28.4223 65.3742 29.3628 65.928L47.9253 76.9108C48.4009 77.1963 48.9452 77.3472 49.5 77.3472C50.0548 77.3472 50.5991 77.1963 51.0747 76.9108L69.6372 65.928C70.1 65.655 70.4836 65.266 70.75 64.7994C71.0164 64.3328 71.1565 63.8047 71.1562 63.2674V41.9205C71.1564 41.3828 71.0163 40.8543 70.75 40.3872C70.4836 39.9201 70.1001 39.5305 69.6372 39.2568ZM64.9688 61.5039L49.5 70.6553L34.0312 61.5039V43.6839L49.5 34.5326L64.9688 43.6839V61.5039Z" fill="#37F2AD"/>
<path d="M18.5625 62.4442V34.2478L37.7437 22.9123L34.5974 17.5849L13.894 29.8207C13.4312 30.0944 13.0477 30.484 12.7813 30.9511C12.5149 31.4182 12.3749 31.9467 12.375 32.4844V62.4442C10.5706 63.0803 9.00728 64.2591 7.89946 65.8189C6.79164 67.3787 6.19363 69.2431 6.1875 71.1562C6.1875 76.2733 10.3517 80.4375 15.4688 80.4375C20.5858 80.4375 24.75 76.2733 24.75 71.1562C24.7439 69.2431 24.1459 67.3787 23.038 65.8189C21.9302 64.2591 20.3669 63.0803 18.5625 62.4442ZM15.4688 74.25C14.6722 74.2144 13.92 73.8728 13.3689 73.2966C12.8179 72.7203 12.5103 71.9536 12.5103 71.1562C12.5103 70.3589 12.8179 69.5922 13.3689 69.0159C13.92 68.4397 14.6722 68.0981 15.4688 68.0625C16.2653 68.0981 17.0175 68.4397 17.5686 69.0159C18.1196 69.5922 18.4272 70.3589 18.4272 71.1562C18.4272 71.9536 18.1196 72.7203 17.5686 73.2966C17.0175 73.8728 16.2653 74.2144 15.4688 74.25ZM83.5312 61.875C78.4142 61.875 74.25 66.0392 74.25 71.1562C74.25 72.2483 74.4727 73.2817 74.8223 74.2562L49.5 89.2176L29.6876 77.5108L26.5413 82.8382L47.9253 95.4731C48.4015 95.7565 48.9454 95.9064 49.4996 95.9069C50.0538 95.9075 50.5979 95.7587 51.0747 95.4762L78.7947 79.0948C80.1869 79.927 81.7957 80.4375 83.5312 80.4375C88.6483 80.4375 92.8125 76.2733 92.8125 71.1562C92.8125 66.0392 88.6483 61.875 83.5312 61.875ZM83.5312 74.25C82.7347 74.2144 81.9825 73.8728 81.4314 73.2966C80.8804 72.7203 80.5728 71.9536 80.5728 71.1562C80.5728 70.3589 80.8804 69.5922 81.4314 69.0159C81.9825 68.4397 82.7347 68.0981 83.5312 68.0625C84.3278 68.0981 85.08 68.4397 85.6311 69.0159C86.1821 69.5922 86.4897 70.3589 86.4897 71.1562C86.4897 71.9536 86.1821 72.7203 85.6311 73.2966C85.08 73.8728 84.3278 74.2144 83.5312 74.25ZM49.5 21.6562C51.7615 21.6562 53.8065 20.8117 55.4183 19.4659L80.4375 34.2509V55.6875H86.625V32.4844C86.6251 31.9467 86.4851 31.4182 86.2187 30.9511C85.9523 30.484 85.5688 30.0944 85.106 29.8207L58.6018 14.1601C58.7132 13.5816 58.7812 12.9876 58.7812 12.375C58.7812 7.25794 54.6171 3.09375 49.5 3.09375C44.3829 3.09375 40.2188 7.25794 40.2188 12.375C40.2188 17.4921 44.3829 21.6562 49.5 21.6562ZM49.5 9.28125C50.1128 9.28064 50.7119 9.46182 51.2217 9.80187C51.7314 10.1419 52.1288 10.6256 52.3636 11.1916C52.5984 11.7576 52.66 12.3805 52.5406 12.9815C52.4212 13.5825 52.1262 14.1346 51.6929 14.5679C51.2596 15.0012 50.7075 15.2962 50.1065 15.4156C49.5055 15.535 48.8826 15.4734 48.3166 15.2386C47.7506 15.0038 47.2669 14.6064 46.9269 14.0967C46.5868 13.5869 46.4056 12.9878 46.4062 12.375C46.4062 10.6673 47.7953 9.28125 49.5 9.28125Z" fill="#37F2AD"/>
</svg>
