<svg width="24" height="25" viewBox="0 0 24 25" fill="none" xmlns="http://www.w3.org/2000/svg">
<path d="M16.0043 5.77031C15.8237 6.14977 15.7015 6.55434 15.6419 6.97031L6.0179 6.97151C5.1539 6.98111 4.8299 7.05191 4.5011 7.22951C4.2203 7.37831 4.0091 7.59071 3.8591 7.87151C3.7115 8.14751 3.6371 8.41751 3.6107 9.00311L11.3999 12.8983L16.6043 10.2943C16.8875 10.6267 17.2211 10.9135 17.5943 11.1439L11.6687 14.1055C11.5348 14.1725 11.3807 14.1871 11.2367 14.1463L11.1311 14.1055L3.6011 10.3423V16.5523C3.6107 17.4163 3.6815 17.7403 3.8591 18.0691C4.0079 18.3499 4.2203 18.5611 4.5011 18.7111C4.8035 18.8731 5.1011 18.9463 5.8127 18.9655L6.2447 18.9703H16.5539L16.9859 18.9655C17.6999 18.9463 17.9963 18.8731 18.2999 18.7111C18.5795 18.5623 18.7919 18.3499 18.9407 18.0691C19.1027 17.7667 19.1759 17.4691 19.1951 16.7575L19.1999 16.3255V11.7259C19.5979 11.7829 20.0019 11.7829 20.3999 11.7259V16.3231C20.3999 17.6599 20.2607 18.1459 19.9991 18.6343C19.7433 19.1175 19.3482 19.5125 18.8651 19.7683C18.3767 20.0299 17.8907 20.1691 16.5539 20.1691H6.2459C4.9079 20.1691 4.4231 20.0299 3.9347 19.7683C3.45156 19.5125 3.05647 19.1175 2.8007 18.6343C2.5571 18.1783 2.4191 17.7247 2.4023 16.5799L2.3999 9.61631C2.3999 8.27831 2.5391 7.79351 2.8007 7.30511C3.0623 6.81671 3.4463 6.43271 3.9347 6.17111C4.3907 5.92751 4.8443 5.78951 5.9891 5.77271L16.0043 5.77031ZM19.7999 4.57031C20.5956 4.57031 21.3586 4.88638 21.9212 5.44899C22.4838 6.0116 22.7999 6.77466 22.7999 7.57031C22.7999 8.36596 22.4838 9.12902 21.9212 9.69163C21.3586 10.2542 20.5956 10.5703 19.7999 10.5703C19.0043 10.5703 18.2412 10.2542 17.6786 9.69163C17.116 9.12902 16.7999 8.36596 16.7999 7.57031C16.7999 6.77466 17.116 6.0116 17.6786 5.44899C18.2412 4.88638 19.0043 4.57031 19.7999 4.57031Z" fill="#37F2AD"/>
</svg>
