<svg width="34" height="34" viewBox="0 0 34 34" fill="none" xmlns="http://www.w3.org/2000/svg">
<g clip-path="url(#clip0_3_88648)">
<path d="M16.8468 27.5954C16.7053 27.9254 16.4607 28.1285 16.1128 28.2049C15.7649 28.2813 15.4615 28.1901 15.2027 27.9313L12.5688 25.2973C12.4038 25.1323 12.3036 24.9378 12.2682 24.7139C12.2329 24.49 12.28 24.2779 12.4097 24.0775L16.2634 17.6782L9.86408 21.5319C9.66373 21.6616 9.4516 21.7087 9.22768 21.6734C9.00377 21.638 8.80931 21.5378 8.64432 21.3728L6.01035 18.7389C5.75107 18.4796 5.65962 18.176 5.73599 17.8281C5.81236 17.4802 6.01577 17.2358 6.34622 17.0948L21.8319 10.8016C22.2561 10.6366 22.6215 10.7073 22.9279 11.0137C23.2343 11.3201 23.305 11.6855 23.14 12.1097L16.8468 27.5954Z" fill="#37F2AD"/>
</g>
<defs>
<clipPath id="clip0_3_88648">
<rect width="24" height="24" fill="white" transform="translate(0 16.9707) rotate(-45)"/>
</clipPath>
</defs>
</svg>
