<svg width="425" height="414" viewBox="0 0 425 414" fill="none" xmlns="http://www.w3.org/2000/svg">
<path opacity="0.45" fill-rule="evenodd" clip-rule="evenodd" d="M211.617 81.3985C235.116 83.7597 261.291 72.5104 281.157 85.2623C301.008 98.005 303.67 125.361 313.484 146.788C322.375 166.201 330.911 184.821 336.225 205.497C342.99 231.819 365.77 263.289 348.91 284.623C330.957 307.339 290.998 285.339 264.273 296.54C242.472 305.677 234.215 335.221 211.617 342.165C187.088 349.702 160.052 345.346 136.197 335.896C110.417 325.684 78.3968 313.199 71.0801 286.492C63.3601 258.314 99.5231 234.695 100.471 205.497C101.371 177.813 69.6664 154.387 76.2453 127.478C82.7495 100.875 107.53 79.2636 133.495 70.4254C158.816 61.8061 184.998 78.7239 211.617 81.3985Z" fill="url(#paint0_linear_3_88719)" fill-opacity="0.8"/>
<path opacity="0.45" fill-rule="evenodd" clip-rule="evenodd" d="M212.48 62.4227C239.608 65.1407 269.824 52.1919 292.757 66.8703C315.673 81.5381 318.746 113.028 330.074 137.691C340.338 160.037 350.191 181.471 356.326 205.27C364.135 235.568 390.433 271.793 370.97 296.351C350.245 322.499 304.118 297.174 273.266 310.068C248.099 320.585 238.567 354.592 212.48 362.586C184.165 371.262 152.954 366.247 125.417 355.37C95.6569 343.615 58.6932 329.243 50.2468 298.502C41.335 266.067 83.081 238.879 84.1758 205.27C85.2139 173.403 48.6149 146.439 56.2095 115.464C63.7178 84.842 92.3245 59.9653 122.298 49.7918C151.528 39.8703 181.752 59.344 212.48 62.4227Z" fill="url(#paint1_linear_3_88719)" fill-opacity="0.7"/>
<path opacity="0.45" fill-rule="evenodd" clip-rule="evenodd" d="M212.872 47.0614C242.885 50.0681 276.316 35.7435 301.688 51.9816C327.042 68.2078 330.442 103.043 342.976 130.327C354.331 155.047 365.233 178.758 372.02 205.086C380.66 238.603 409.756 278.677 388.222 305.844C365.293 334.77 314.258 306.755 280.124 321.018C252.28 332.654 241.734 370.274 212.872 379.117C181.544 388.714 147.013 383.167 116.547 371.134C83.6204 358.13 42.7243 342.231 33.3795 308.224C23.5195 272.343 69.7066 242.266 70.918 205.086C72.0665 169.834 31.5739 140.004 39.9764 105.739C48.2835 71.8627 79.9335 44.3429 113.095 33.0884C145.435 22.1128 178.875 43.6556 212.872 47.0614Z" fill="url(#paint2_linear_3_88719)" fill-opacity="0.6"/>
<path opacity="0.45" fill-rule="evenodd" clip-rule="evenodd" d="M210.772 32.6036C243.425 35.8822 279.794 20.2627 307.397 37.9686C334.98 55.6616 338.679 93.6458 352.314 123.396C364.668 150.35 376.528 176.205 383.912 204.913C393.312 241.46 424.965 285.157 401.538 314.779C376.593 346.32 321.072 315.773 283.938 331.325C253.645 344.012 242.172 385.033 210.772 394.675C176.691 405.141 139.124 399.092 105.979 385.971C70.1584 371.791 25.6671 354.456 15.5007 317.374C4.774 278.249 55.0215 245.454 56.3393 204.913C57.5888 166.474 13.5364 133.948 22.6777 96.5852C31.7151 59.6469 66.1475 29.6394 102.224 17.3676C137.408 5.39983 173.787 28.89 210.772 32.6036Z" fill="url(#paint3_linear_3_88719)" fill-opacity="0.5"/>
<path opacity="0.45" fill-rule="evenodd" clip-rule="evenodd" d="M211.183 19.9531C246.226 23.4695 285.259 6.717 314.883 25.7072C344.486 44.6837 348.456 85.4232 363.09 117.332C376.348 146.241 389.077 173.971 397.002 204.762C407.09 243.96 441.061 290.826 415.918 322.597C389.147 356.426 329.559 323.663 289.706 340.344C257.195 353.951 244.882 397.947 211.183 408.289C174.606 419.513 134.287 413.026 98.7151 398.954C60.2711 383.745 12.5216 365.152 1.61064 325.381C-9.90164 283.418 44.0256 248.243 45.4399 204.762C46.7809 163.534 -0.497519 128.649 9.31316 88.5759C19.0124 48.958 55.9663 16.7739 94.6853 3.61186C132.445 -9.22402 171.489 15.9701 211.183 19.9531Z" fill="url(#paint4_linear_3_88719)" fill-opacity="0.4"/>
<path opacity="0.45" fill-rule="evenodd" clip-rule="evenodd" d="M211.759 102.181C231.466 104.152 253.416 94.7641 270.075 105.406C286.723 116.04 288.955 138.87 297.185 156.751C304.641 172.952 311.799 188.491 316.255 205.746C321.928 227.712 341.032 253.975 326.893 271.779C311.838 290.736 278.329 272.376 255.917 281.724C237.634 289.349 230.71 314.004 211.759 319.8C191.19 326.09 168.517 322.454 148.513 314.568C126.894 306.046 100.042 295.626 93.9057 273.339C87.4318 249.824 117.758 230.112 118.553 205.746C119.307 182.642 92.7202 163.093 98.2373 140.637C103.692 118.435 124.473 100.4 146.247 93.024C167.481 85.831 189.437 99.9494 211.759 102.181Z" fill="url(#paint5_linear_3_88719)" fill-opacity="0.9"/>
<defs>
<linearGradient id="paint0_linear_3_88719" x1="-57.5395" y1="208.426" x2="207.212" y2="479.844" gradientUnits="userSpaceOnUse">
<stop stop-color="#37F2AD" stop-opacity="0.55"/>
<stop offset="1" stop-color="#0B5CA8"/>
</linearGradient>
<linearGradient id="paint1_linear_3_88719" x1="-98.2298" y1="208.642" x2="206.497" y2="521.938" gradientUnits="userSpaceOnUse">
<stop stop-color="#37F2AD"/>
<stop offset="1" stop-color="#0B5CA8"/>
</linearGradient>
<linearGradient id="paint2_linear_3_88719" x1="-130.893" y1="208.816" x2="206.21" y2="555.441" gradientUnits="userSpaceOnUse">
<stop stop-color="#37F2AD"/>
<stop offset="1" stop-color="#0B5CA8"/>
</linearGradient>
<linearGradient id="paint3_linear_3_88719" x1="-163.213" y1="208.98" x2="204.385" y2="586.101" gradientUnits="userSpaceOnUse">
<stop stop-color="#37F2AD"/>
<stop offset="1" stop-color="#0B5CA8"/>
</linearGradient>
<linearGradient id="paint4_linear_3_88719" x1="-190.19" y1="209.124" x2="204.066" y2="613.855" gradientUnits="userSpaceOnUse">
<stop stop-color="#37F2AD"/>
<stop offset="1" stop-color="#0B5CA8"/>
</linearGradient>
<linearGradient id="paint5_linear_3_88719" x1="-13.9542" y1="208.19" x2="206.96" y2="435.77" gradientUnits="userSpaceOnUse">
<stop stop-color="#37F2AD"/>
<stop offset="1" stop-color="#0B5CA8"/>
</linearGradient>
</defs>
</svg>
